<svg width="1200" height="800" xmlns="http://www.w3.org/2000/svg">
  <defs>
    <!-- Gradients for Mount Fuji -->
    <linearGradient id="fujiGradient" x1="0%" y1="0%" x2="0%" y2="100%">
      <stop offset="0%" style="stop-color:#e5e7eb;stop-opacity:0.8"/>
      <stop offset="50%" style="stop-color:#d1d5db;stop-opacity:0.6"/>
      <stop offset="100%" style="stop-color:#9ca3af;stop-opacity:0.4"/>
    </linearGradient>

    <!-- Gradient for sky -->
    <linearGradient id="skyGradient" x1="0%" y1="0%" x2="0%" y2="100%">
      <stop offset="0%" style="stop-color:#f9fafb;stop-opacity:0.3"/>
      <stop offset="100%" style="stop-color:#f3f4f6;stop-opacity:0.1"/>
    </linearGradient>

    <!-- Bamboo gradient -->
    <linearGradient id="bambooGradient" x1="0%" y1="0%" x2="100%" y2="0%">
      <stop offset="0%" style="stop-color:#16a34a;stop-opacity:0.6"/>
      <stop offset="100%" style="stop-color:#22c55e;stop-opacity:0.4"/>
    </linearGradient>

    <!-- Leaf gradient -->
    <linearGradient id="leafGradient" x1="0%" y1="0%" x2="100%" y2="100%">
      <stop offset="0%" style="stop-color:#22c55e;stop-opacity:0.7"/>
      <stop offset="100%" style="stop-color:#16a34a;stop-opacity:0.5"/>
    </linearGradient>
  </defs>

  <!-- Sky background -->
  <rect width="1200" height="800" fill="url(#skyGradient)"/>

  <!-- Mount Fuji silhouette (center background) -->
  <path d="M 400 500 L 600 150 L 800 500 Z" fill="url(#fujiGradient)" opacity="0.3"/>

  <!-- Snow cap on Fuji -->
  <path d="M 550 200 L 600 150 L 650 200 Z" fill="#ffffff" opacity="0.6"/>

  <!-- Left side bamboo grove -->
  <g opacity="0.4">
    <!-- Bamboo stalks -->
    <rect x="50" y="200" width="8" height="300" fill="url(#bambooGradient)" rx="4"/>
    <rect x="70" y="180" width="10" height="320" fill="url(#bambooGradient)" rx="5"/>
    <rect x="95" y="220" width="7" height="280" fill="url(#bambooGradient)" rx="3"/>
    <rect x="120" y="160" width="9" height="340" fill="url(#bambooGradient)" rx="4"/>
    <rect x="145" y="200" width="8" height="300" fill="url(#bambooGradient)" rx="4"/>

    <!-- Bamboo nodes -->
    <circle cx="54" cy="250" r="6" fill="#15803d" opacity="0.6"/>
    <circle cx="54" cy="320" r="6" fill="#15803d" opacity="0.6"/>
    <circle cx="54" cy="390" r="6" fill="#15803d" opacity="0.6"/>

    <circle cx="75" cy="230" r="7" fill="#15803d" opacity="0.6"/>
    <circle cx="75" cy="310" r="7" fill="#15803d" opacity="0.6"/>
    <circle cx="75" cy="390" r="7" fill="#15803d" opacity="0.6"/>

    <!-- Bamboo leaves -->
    <ellipse cx="80" cy="190" rx="15" ry="5" fill="url(#leafGradient)" transform="rotate(-20 80 190)"/>
    <ellipse cx="100" cy="210" rx="12" ry="4" fill="url(#leafGradient)" transform="rotate(15 100 210)"/>
    <ellipse cx="130" cy="170" rx="18" ry="6" fill="url(#leafGradient)" transform="rotate(-30 130 170)"/>
    <ellipse cx="155" cy="190" rx="14" ry="5" fill="url(#leafGradient)" transform="rotate(25 155 190)"/>
  </g>

  <!-- Right side bamboo grove -->
  <g opacity="0.4">
    <!-- Bamboo stalks -->
    <rect x="1050" y="180" width="9" height="320" fill="url(#bambooGradient)" rx="4"/>
    <rect x="1075" y="200" width="8" height="300" fill="url(#bambooGradient)" rx="4"/>
    <rect x="1100" y="160" width="10" height="340" fill="url(#bambooGradient)" rx="5"/>
    <rect x="1125" y="190" width="7" height="310" fill="url(#bambooGradient)" rx="3"/>
    <rect x="1145" y="170" width="8" height="330" fill="url(#bambooGradient)" rx="4"/>

    <!-- Bamboo nodes -->
    <circle cx="1054" cy="240" r="6" fill="#15803d" opacity="0.6"/>
    <circle cx="1054" cy="320" r="6" fill="#15803d" opacity="0.6"/>
    <circle cx="1054" cy="400" r="6" fill="#15803d" opacity="0.6"/>

    <circle cx="1105" cy="220" r="7" fill="#15803d" opacity="0.6"/>
    <circle cx="1105" cy="300" r="7" fill="#15803d" opacity="0.6"/>
    <circle cx="1105" cy="380" r="7" fill="#15803d" opacity="0.6"/>

    <!-- Bamboo leaves -->
    <ellipse cx="1040" cy="190" rx="16" ry="5" fill="url(#leafGradient)" transform="rotate(20 1040 190)"/>
    <ellipse cx="1080" cy="180" rx="13" ry="4" fill="url(#leafGradient)" transform="rotate(-15 1080 180)"/>
    <ellipse cx="1110" cy="170" rx="17" ry="6" fill="url(#leafGradient)" transform="rotate(30 1110 170)"/>
    <ellipse cx="1135" cy="180" rx="14" ry="5" fill="url(#leafGradient)" transform="rotate(-25 1135 180)"/>
  </g>

  <!-- Scattered leaves in the middle ground -->
  <g opacity="0.3">
    <ellipse cx="300" cy="400" rx="10" ry="3" fill="url(#leafGradient)" transform="rotate(45 300 400)"/>
    <ellipse cx="350" cy="450" rx="8" ry="2" fill="url(#leafGradient)" transform="rotate(-30 350 450)"/>
    <ellipse cx="850" cy="420" rx="12" ry="4" fill="url(#leafGradient)" transform="rotate(60 850 420)"/>
    <ellipse cx="900" cy="380" rx="9" ry="3" fill="url(#leafGradient)" transform="rotate(-45 900 380)"/>
    <ellipse cx="250" cy="350" rx="7" ry="2" fill="url(#leafGradient)" transform="rotate(15 250 350)"/>
    <ellipse cx="950" cy="350" rx="11" ry="3" fill="url(#leafGradient)" transform="rotate(-60 950 350)"/>
  </g>

  <!-- Floating zen elements -->
  <g opacity="0.2">
    <circle cx="200" cy="100" r="3" fill="#22c55e"/>
    <circle cx="1000" cy="120" r="2" fill="#16a34a"/>
    <circle cx="600" cy="80" r="2" fill="#22c55e"/>
  </g>
</svg>